<svg width="54" height="41" viewBox="0 0 54 41" fill="none" xmlns="http://www.w3.org/2000/svg">
<path d="M5.864 4.92L5.672 8.472C5.672 13.24 6.28 17.976 7.496 22.68C8.2 25.432 9.08 27.896 10.136 30.072C11.192 32.216 12.616 34.008 14.408 35.448C16.2 36.888 18.136 37.608 20.216 37.608C22.328 37.608 23.848 36.856 24.776 35.352C25.736 33.848 26.216 31.752 26.216 29.064C26.216 26.376 25.672 23.4 24.584 20.136C23.496 16.84 22.088 14.024 20.36 11.688C19.144 11.208 17.672 10.184 15.944 8.616C14.216 7.016 13.352 5.944 13.352 5.4C13.352 5.08 13.656 4.76 14.264 4.44C14.904 4.088 15.384 3.912 15.704 3.912C17.816 3.912 19.8 4.968 21.656 7.08C23.512 9.192 24.616 10.984 24.968 12.456C27.144 13.16 28.488 13.576 29 13.704C29.512 13.8 29.768 13.992 29.768 14.28C29.768 14.632 29.576 14.808 29.192 14.808C28.84 14.808 28.44 14.76 27.992 14.664C27.096 14.472 26.36 14.28 25.784 14.088C27 18.024 27.608 22.2 27.608 26.616C27.608 30.392 26.92 33.56 25.544 36.12C24.776 37.496 23.672 38.568 22.232 39.336C20.792 40.136 18.968 40.536 16.76 40.536C14.552 40.536 12.392 39.496 10.28 37.416C8.2 35.304 6.488 32.6 5.144 29.304C3.8 26.008 2.744 22.424 1.976 18.552C1.208 14.68 0.824 10.904 0.824 7.224C0.888 7.032 0.984 6.872 1.112 6.744C1.816 6.296 2.728 5.784 3.848 5.208C4.968 4.632 5.576 4.344 5.672 4.344C5.8 4.344 5.864 4.536 5.864 4.92Z" fill="#40BC96"/>
<path d="M33.4482 28.536C34.4082 25.56 34.8882 21.992 34.8882 17.832C34.8882 13.672 34.5202 10.168 33.7842 7.32C33.0802 4.44 32.1362 3 30.9522 3C30.3442 3 29.8322 3.464 29.4162 4.392C28.9682 5.288 28.7442 6.504 28.7442 8.04C28.7442 10.696 30.3122 17.528 33.4482 28.536ZM38.9682 30.744C37.4002 35.064 36.5842 37.48 36.5202 37.992C36.5202 38.664 36.3602 39.064 36.0402 39.192C35.7522 39.32 35.2082 39.56 34.4082 39.912L33.1122 40.536C32.7922 40.536 32.5682 40.328 32.4402 39.912C32.3442 39.528 32.0402 38.456 31.5282 36.696C31.0162 34.904 30.6162 33.512 30.3282 32.52C30.0402 31.496 29.6562 30.088 29.1762 28.296C28.6642 26.472 28.2642 24.968 27.9762 23.784C27.6562 22.568 27.3362 21.272 27.0162 19.896C26.3762 17.208 26.0562 15.4 26.0562 14.472C26.0562 10.6 26.8402 7.304 28.4082 4.584C29.9442 1.832 31.5602 0.455998 33.2562 0.455998C36.3282 0.455998 37.8642 3.464 37.8642 9.48C37.8642 12.616 37.4642 16.12 36.6642 19.992C35.8642 23.832 34.9202 27.096 33.8322 29.784L35.9922 36.888C36.0562 36.888 36.4722 35.752 37.2402 33.48C38.0082 31.176 38.4082 29.864 38.4402 29.544C38.6002 28.936 38.9842 28.536 39.5922 28.344C39.9442 28.248 40.5682 28.04 41.4642 27.72C42.3602 27.368 42.8242 27.192 42.8562 27.192C43.0802 27.192 43.1922 27.336 43.1922 27.624C42.9042 29.16 42.7602 30.776 42.7602 32.472C42.7602 34.136 43.0642 35.56 43.6722 36.744C44.2802 37.928 45.1442 38.52 46.2642 38.52C48.1202 38.52 50.2802 36.92 52.7442 33.72L53.0802 34.296C51.6082 36.472 50.0882 38.12 48.5202 39.24C46.9842 40.392 45.4802 40.968 44.0082 40.968C42.5682 40.968 41.3682 40.168 40.4082 38.568C39.4482 36.968 38.9682 34.632 38.9682 31.56V30.744Z" fill="#2C2E3C"/>
</svg>
