<svg width="799" height="1024" viewBox="0 0 799 1024" fill="none" xmlns="http://www.w3.org/2000/svg">
<path d="M357.194 12.9816C589.4 -72.4965 761.592 -58.5144 893.849 12.9816C1026.11 84.4776 936.912 680.646 693.043 578.196C449.174 475.746 -95.7165 587.242 302.002 428.769C699.72 270.296 124.988 98.4597 357.194 12.9816Z" fill="#60C3A4"/>
<path d="M141.208 -131.113C336.374 -214.07 876.026 -244.054 592.26 -131.113C308.493 -18.1709 737.241 193.22 592.26 388.619C447.279 584.018 156.361 561.238 141.208 388.619C126.054 216 -53.9593 -48.1554 141.208 -131.113Z" fill="#A68DE6"/>
<path d="M195.096 461.98C260.239 539.035 550.163 378.039 666.286 461.98C782.41 545.921 567.472 810.7 489.976 1125.58C412.48 1440.46 -40.2117 1148.83 129.953 869.403C300.117 589.975 129.953 384.925 195.096 461.98Z" fill="#40BC96"/>
<path d="M134.096 480.98C199.239 558.035 489.163 397.039 605.286 480.98C721.41 564.921 506.472 829.7 428.976 1144.58C351.48 1459.46 -101.212 1167.83 68.9526 888.403C239.117 608.975 68.9526 403.925 134.096 480.98Z" fill="#65D5B2"/>
<path d="M523.096 524.98C602 468 878.163 441.039 994.286 524.98C1110.41 608.921 895.472 873.7 817.976 1188.58C740.48 1503.46 287.788 1211.83 457.953 932.403C628.117 652.975 444.192 581.96 523.096 524.98Z" fill="#FFC300"/>
<path d="M114.153 -73.1126C309.32 -156.07 848.972 -186.054 565.205 -73.1126C281.439 39.8291 710.187 251.22 565.205 446.619C420.224 642.018 229.5 635.5 120 473C10.5002 310.5 -81.0135 9.84462 114.153 -73.1126Z" fill="#AD9CD8"/>
</svg>
